<?xml version="1.0" encoding="utf-8"?>
<!-- Generator: Adobe Illustrator 24.0.1, SVG Export Plug-In . SVG Version: 6.00 Build 0)  -->
<svg version="1.1" id="Layer_1" xmlns="http://www.w3.org/2000/svg" xmlns:xlink="http://www.w3.org/1999/xlink" x="0px" y="0px"
	 viewBox="0 0 500 500" style="enable-background:new 0 0 500 500;" xml:space="preserve">
<style type="text/css">
	.st0{fill:#AF0E15;}
	.st1{fill:#FFFFFF;}
	.st2{fill:#F0C80F;}
</style>
<g>
	<path class="st0" d="M397.5514221,215.4476013c-1.539917,22.640625-1.8480225,90.1016846-4.9284668,94.7221069
		c-3.0804443,4.6209106-30.2483521,26.0297241-32.2972412,32.3443604
		c-2.0494995,6.3146362,1.6471558,43.5875244-0.8170776,48.9784546
		c-2.4642334,5.3908691-51.2388916,71.3686523-60.0684204,75.1618652
		c-6.9308472,2.9779663-49.4403076,2.1567383-49.4403076,2.1567383s-42.5093994,0.821228-49.4402466-2.1567383
		c-8.8295898-3.7932129-57.604187-69.7709961-60.0684204-75.1618652
		c-2.4642334-5.3909302,1.2324219-42.6638184-0.8170776-48.9784546
		c-2.0488892-6.3146362-29.2167969-27.7234497-32.2972412-32.3443604
		c-3.0804443-4.6204224-3.3885498-72.0814819-4.9284668-94.7221069
		c-1.539917-22.6411743,7.2389526-19.7150879,11.3974609-24.7979126c4.1585083-5.0822144,3.3885498-23.7186279,3.3885498-44.6655273
		c0-20.9469681,31.1119385-114.8990555,132.7654419-114.8990555s132.7655029,93.9520874,132.7655029,114.8990555
		c0,20.9468994-0.7699585,39.583313,3.3885498,44.6655273C390.3124695,195.7325134,399.0919495,192.806427,397.5514221,215.4476013z
		"/>
	<path class="st1" d="M155.0905457,254.573822c7.6984253,4.8683472,29.6156006,13.859314,57.869812,18.6499634
		c-1.0922241,3.479248-3.0863037,7.5894775-6.2981567,8.8625488c-13.4552002,5.3267212-46.9519043-4.682251-53.4827271-12.3477173
		c-2.2509766-2.6427612-3.2371826-10.5214844-3.4421387-19.4823608
		C151.2430725,251.8344421,153.0121765,253.259491,155.0905457,254.573822z M344.9093323,254.573822
		c-7.699646,4.8689575-29.619751,13.861084-57.8775024,18.651123c1.0892944,3.4987183,3.0775146,7.5818481,6.3058472,8.8613892
		c13.4552002,5.3325806,46.9519043-4.682251,53.4827271-12.3477173c2.2533569-2.6456909,3.2401123-10.5250244,3.4451294-19.4853516
		C348.7591858,251.8326721,346.9888611,253.2589417,344.9093323,254.573822z"/>
	<path class="st2" d="M139.8756409,121.956749c-1.8486328-7.5470581,36.1947632-41.7907104,62.8914185-49.9020996
		l24.1298218,95.8001175h23.1030273h23.1030884l24.1298218-95.8001175
		c26.6972046,8.1113892,64.7400513,42.3550415,62.8920288,49.9020996
		c-1.8486328,7.5470657-12.0137329,33.1143875-10.9356079,72.0814896
		c0.4299927,15.5424805,0.8329468,26.1988525,0.5007324,33.8265991l-0.2751465,0.0270996
		c0.0601196,0.6138306,0.1172485,1.2477417,0.1726074,1.8892822c-0.6615601,10.1084595-2.9349365,14.4119263-8.8695679,18.1645508
		c-10.4732056,6.6227417-47.9003906,20.6387939-90.7179565,20.6387939c-42.8175049,0-80.2446899-14.0160522-90.7178955-20.6387939
		c-5.934082-3.7526245-8.2080078-8.0548706-8.8695679-18.1622314c0.0553589-0.6427002,0.1124878-1.2771606,0.1726074-1.8927612
		l-0.2751465-0.0270996c-0.3322144-7.6278076,0.0706787-18.2835693,0.5007324-33.8254395
		C151.8893127,155.0711365,141.7236633,129.5038147,139.8756409,121.956749z M345.5519104,323.5869446
		c-2.2672729,1.9449463-4.5910645,3.9165649-6.8947754,5.8707275
		c-10.5962524,8.9874268-22.6064453,19.1742554-25.1955566,23.6456299
		c-3.2860107,5.6760254-8.1821289,19.8452759-10.8807983,42.859314
		c-0.7988281,13.9318237,2.7181396,20.9363403,6.5979614,21.6880493c1.8144531,0.3510742,3.6825562-0.7199097,4.2521973-2.4401245
		c0.9490356-2.8654175,2.0083008-6.2822266,3.2341919-10.2386475c5.7991943-18.7169189,14.5666504-46.9888916,30.7458496-79.9315796
		C347.9886169,323.8641052,346.5464783,322.7337341,345.5519104,323.5869446z M186.5388489,353.103302
		c-2.5891113-4.4713745-14.5992432-14.6582031-25.196106-23.6456299c-2.3035889-1.9541016-4.6273193-3.9255981-6.8944702-5.8706055
		c-0.9945679-0.8532104-2.4367065,0.2771606-1.8590698,1.4533691
		c16.1790161,32.9429321,24.9464111,61.2146606,30.7460938,79.9314575c1.2259521,3.9564209,2.2845459,7.37323,3.2341919,10.2386475
		c0.5690918,1.7190552,2.4371338,2.7911987,4.2515869,2.4401245c3.8798828-0.751709,7.3968506-7.7562256,6.5980225-21.6880493
		C194.7209778,372.9485779,189.8243103,358.7793274,186.5388489,353.103302z M379.0003967,239.1733704
		c-0.4588623-1.1723633-0.9372559-2.3953247-1.4320679-3.6760864c-4.4960938-11.6265869-9.5053101-40.5576782-9.5053101-63.4833984
		c0-14.519165-0.6112671-23.8970947-3.3936768-29.5942993c-0.4883423-0.9998779-1.975769-0.8221436-2.2410889,0.2585449
		c-2.9998779,12.2186279-5.998291,29.5143433-5.3997803,51.1433105c0.0648193,2.3482056,0.1290283,4.585022,0.1908569,6.7164307
		c0.3758545,13.0681763,0.6368408,22.1934814,0.230957,29.1455078c0.8235474,9.8710938,2.3540649,36.9064331-4.6604614,45.1404419
		c-6.5549927,7.6948853-31.3664551,16.5291748-49.7330933,16.5291748c-4.7858887,0-9.1340942-0.5997314-12.6074829-1.9758911
		c-6.7959595-2.6928101-9.8969727-10.0124512-11.2531128-14.9586182c-9.2554932,1.2489014-19.0670776,2.0083008-29.196228,2.0083008
		c-10.1290894,0-19.9406738-0.7593994-29.196167-2.0083008c-1.3561401,4.946167-4.456604,12.2658081-11.2531128,14.9586182
		c-3.472229,1.3761597-7.8233643,1.9758911-12.6075439,1.9758911c-18.3665771,0.0011597-43.1774292-8.8330688-49.7330322-16.5291748
		c-7.013916-8.2340088-5.4840088-35.2681274-4.6604614-45.1398315c-0.4058838-6.9526367-0.1448975-16.0797119,0.2315063-29.1508179
		c0.0612793-2.130188,0.1254883-4.3652954,0.1903076-6.711731c0.598877-21.6230469-2.3977051-38.9157104-5.3971558-51.1334229
		c-0.2661743-1.0842285-1.7590332-1.2625732-2.2483521-0.2590942c-2.7784424,5.697876-3.3890991,15.0738525-3.3890991,29.5849609
		c0,22.9257202-5.0091553,51.8568115-9.505249,63.4833984c-0.494812,1.2807617-0.9732056,2.5037231-1.4321289,3.6760864
		c-3.5876465,9.1700439-5.7531738,14.7052612-5.2554321,20.1981201c0.72052,7.9506226,17.2008057,32.3220215,28.9758911,44.7085571
		c4.880188,5.1334839,13.4287109,12.3842773,21.6956787,19.3969727
		c12.1574097,10.3117676,23.6408691,20.052063,26.9098511,25.6980591
		c0.9590454,1.6566162,7.0227661,12.8920898,10.8171997,37.7807007h91.7146606
		c3.7944336-24.8886108,9.8581543-36.1240845,10.8171997-37.7807007
		c3.2689819-5.6459961,14.7524414-15.3862915,26.9098511-25.6980591
		c8.2669678-7.0126953,16.8154907-14.2634888,21.6962891-19.3969727
		c11.7744751-12.3865356,28.2547607-36.7579346,28.9752197-44.7085571
		C384.7542419,253.8786316,382.5881042,248.3434143,379.0003967,239.1733704z M207.2201233,430.4154358
		c0.0147095,4.0648804,3.3361206,7.3721313,7.4038696,7.3721313h70.7518921c4.067749,0,7.3891602-3.307251,7.4038696-7.3721313
		c0.0501099-13.8352051,0.8400879-25.6391602,2.0200806-35.6174316h-89.5997925
		C206.3800354,404.7762756,207.1700134,416.5802307,207.2201233,430.4154358z"/>
</g>
</svg>
